<?xml version="1.0" encoding="UTF-8" standalone="no"?>
<!DOCTYPE svg PUBLIC "-//W3C//DTD SVG 1.1//EN"
 "http://www.w3.org/Graphics/SVG/1.1/DTD/svg11.dtd">
<!-- Generated by graphviz version 9.0.0 (20230911.1827)
 -->
<!-- Title: G Pages: 1 -->
<svg width="1007pt" height="235pt"
     viewBox="0.00 0.00 1007.45 234.95" xmlns="http://www.w3.org/2000/svg">
<g id="graph0" class="graph" transform="scale(1 1) rotate(0) translate(21.6 213.35)">
<title>G</title>
<polygon fill="#111111" stroke="none" points="-21.6,21.6 -21.6,-213.35 985.85,-213.35 985.85,21.6 -21.6,21.6"/>
<!-- src/app/globals.css -->
<g id="node1" class="node">
<title>src/app/globals.css</title>
<path fill="none" stroke="#cfffac" d="M355.21,-23.75C355.21,-23.75 240.29,-23.75 240.29,-23.75 236.33,-23.75 232.38,-19.79 232.38,-15.83 232.38,-15.83 232.38,-7.92 232.38,-7.92 232.38,-3.96 236.33,0 240.29,0 240.29,0 355.21,0 355.21,0 359.17,0 363.12,-3.96 363.12,-7.92 363.12,-7.92 363.12,-15.83 363.12,-15.83 363.12,-19.79 359.17,-23.75 355.21,-23.75"/>
<text text-anchor="middle" x="297.75" y="-6.45" font-family="Arial" font-size="14.00" fill="#cfffac">src/app/globals.css</text>
</g>
<!-- src/app/layout.tsx -->
<g id="node2" class="node">
<title>src/app/layout.tsx</title>
<path fill="none" stroke="#c6c5fe" d="M137.83,-23.75C137.83,-23.75 32.67,-23.75 32.67,-23.75 28.71,-23.75 24.75,-19.79 24.75,-15.83 24.75,-15.83 24.75,-7.92 24.75,-7.92 24.75,-3.96 28.71,0 32.67,0 32.67,0 137.83,0 137.83,0 141.79,0 145.75,-3.96 145.75,-7.92 145.75,-7.92 145.75,-15.83 145.75,-15.83 145.75,-19.79 141.79,-23.75 137.83,-23.75"/>
<text text-anchor="middle" x="85.25" y="-6.45" font-family="Arial" font-size="14.00" fill="#c6c5fe">src/app/layout.tsx</text>
</g>
<!-- src/app/layout.tsx&#45;&gt;src/app/globals.css -->
<g id="edge1" class="edge">
<title>src/app/layout.tsx&#45;&gt;src/app/globals.css</title>
<path fill="none" stroke="#757575" d="M146.01,-11.88C169.2,-11.88 196.04,-11.88 220.58,-11.88"/>
<polygon fill="#757575" stroke="#757575" points="220.54,-15.38 230.54,-11.88 220.54,-8.38 220.54,-15.38"/>
</g>
<!-- src/app/page.module.css -->
<g id="node3" class="node">
<title>src/app/page.module.css</title>
<path fill="none" stroke="#cfffac" d="M373.21,-65.75C373.21,-65.75 222.29,-65.75 222.29,-65.75 218.33,-65.75 214.38,-61.79 214.38,-57.83 214.38,-57.83 214.38,-49.92 214.38,-49.92 214.38,-45.96 218.33,-42 222.29,-42 222.29,-42 373.21,-42 373.21,-42 377.17,-42 381.12,-45.96 381.12,-49.92 381.12,-49.92 381.12,-57.83 381.12,-57.83 381.12,-61.79 377.17,-65.75 373.21,-65.75"/>
<text text-anchor="middle" x="297.75" y="-48.45" font-family="Arial" font-size="14.00" fill="#cfffac">src/app/page.module.css</text>
</g>
<!-- src/app/page.tsx -->
<g id="node4" class="node">
<title>src/app/page.tsx</title>
<path fill="none" stroke="#c6c5fe" d="M134.83,-65.75C134.83,-65.75 35.67,-65.75 35.67,-65.75 31.71,-65.75 27.75,-61.79 27.75,-57.83 27.75,-57.83 27.75,-49.92 27.75,-49.92 27.75,-45.96 31.71,-42 35.67,-42 35.67,-42 134.83,-42 134.83,-42 138.79,-42 142.75,-45.96 142.75,-49.92 142.75,-49.92 142.75,-57.83 142.75,-57.83 142.75,-61.79 138.79,-65.75 134.83,-65.75"/>
<text text-anchor="middle" x="85.25" y="-48.45" font-family="Arial" font-size="14.00" fill="#c6c5fe">src/app/page.tsx</text>
</g>
<!-- src/app/page.tsx&#45;&gt;src/app/page.module.css -->
<g id="edge2" class="edge">
<title>src/app/page.tsx&#45;&gt;src/app/page.module.css</title>
<path fill="none" stroke="#757575" d="M143.21,-53.88C161.52,-53.88 182.31,-53.88 202.55,-53.88"/>
<polygon fill="#757575" stroke="#757575" points="202.54,-57.38 212.54,-53.88 202.54,-50.38 202.54,-57.38"/>
</g>
<!-- src/stories/Button.stories.ts -->
<g id="node5" class="node">
<title>src/stories/Button.stories.ts</title>
<path fill="none" stroke="#c6c5fe" d="M595.08,-191.75C595.08,-191.75 432.92,-191.75 432.92,-191.75 428.96,-191.75 425,-187.79 425,-183.83 425,-183.83 425,-175.92 425,-175.92 425,-171.96 428.96,-168 432.92,-168 432.92,-168 595.08,-168 595.08,-168 599.04,-168 603,-171.96 603,-175.92 603,-175.92 603,-183.83 603,-183.83 603,-187.79 599.04,-191.75 595.08,-191.75"/>
<text text-anchor="middle" x="514" y="-174.45" font-family="Arial" font-size="14.00" fill="#c6c5fe">src/stories/Button.stories.ts</text>
</g>
<!-- src/stories/Button.tsx -->
<g id="node6" class="node">
<title>src/stories/Button.tsx</title>
<path fill="none" stroke="#c6c5fe" d="M774.96,-191.75C774.96,-191.75 649.54,-191.75 649.54,-191.75 645.58,-191.75 641.62,-187.79 641.62,-183.83 641.62,-183.83 641.62,-175.92 641.62,-175.92 641.62,-171.96 645.58,-168 649.54,-168 649.54,-168 774.96,-168 774.96,-168 778.92,-168 782.88,-171.96 782.88,-175.92 782.88,-175.92 782.88,-183.83 782.88,-183.83 782.88,-187.79 778.92,-191.75 774.96,-191.75"/>
<text text-anchor="middle" x="712.25" y="-174.45" font-family="Arial" font-size="14.00" fill="#c6c5fe">src/stories/Button.tsx</text>
</g>
<!-- src/stories/Button.stories.ts&#45;&gt;src/stories/Button.tsx -->
<g id="edge3" class="edge">
<title>src/stories/Button.stories.ts&#45;&gt;src/stories/Button.tsx</title>
<path fill="none" stroke="#757575" d="M603.37,-179.88C612.21,-179.88 621.16,-179.88 629.92,-179.88"/>
<polygon fill="#757575" stroke="#757575" points="629.8,-183.38 639.8,-179.88 629.8,-176.38 629.8,-183.38"/>
</g>
<!-- src/stories/button.css -->
<g id="node7" class="node">
<title>src/stories/button.css</title>
<path fill="none" stroke="#cfffac" d="M956.33,-191.75C956.33,-191.75 829.42,-191.75 829.42,-191.75 825.46,-191.75 821.5,-187.79 821.5,-183.83 821.5,-183.83 821.5,-175.92 821.5,-175.92 821.5,-171.96 825.46,-168 829.42,-168 829.42,-168 956.33,-168 956.33,-168 960.29,-168 964.25,-171.96 964.25,-175.92 964.25,-175.92 964.25,-183.83 964.25,-183.83 964.25,-187.79 960.29,-191.75 956.33,-191.75"/>
<text text-anchor="middle" x="892.88" y="-174.45" font-family="Arial" font-size="14.00" fill="#cfffac">src/stories/button.css</text>
</g>
<!-- src/stories/Button.tsx&#45;&gt;src/stories/button.css -->
<g id="edge4" class="edge">
<title>src/stories/Button.tsx&#45;&gt;src/stories/button.css</title>
<path fill="none" stroke="#757575" d="M783.33,-179.88C791.97,-179.88 800.85,-179.88 809.64,-179.88"/>
<polygon fill="#757575" stroke="#757575" points="809.6,-183.38 819.6,-179.88 809.6,-176.38 809.6,-183.38"/>
</g>
<!-- src/stories/Configure.mdx -->
<g id="node8" class="node">
<title>src/stories/Configure.mdx</title>
<path fill="none" stroke="#cfffac" d="M162.21,-149.75C162.21,-149.75 8.29,-149.75 8.29,-149.75 4.33,-149.75 0.38,-145.79 0.38,-141.83 0.38,-141.83 0.38,-133.92 0.38,-133.92 0.38,-129.96 4.33,-126 8.29,-126 8.29,-126 162.21,-126 162.21,-126 166.17,-126 170.12,-129.96 170.12,-133.92 170.12,-133.92 170.12,-141.83 170.12,-141.83 170.12,-145.79 166.17,-149.75 162.21,-149.75"/>
<text text-anchor="middle" x="85.25" y="-132.45" font-family="Arial" font-size="14.00" fill="#cfffac">src/stories/Configure.mdx</text>
</g>
<!-- src/stories/Header.stories.ts -->
<g id="node9" class="node">
<title>src/stories/Header.stories.ts</title>
<path fill="none" stroke="#c6c5fe" d="M381.08,-149.75C381.08,-149.75 214.42,-149.75 214.42,-149.75 210.46,-149.75 206.5,-145.79 206.5,-141.83 206.5,-141.83 206.5,-133.92 206.5,-133.92 206.5,-129.96 210.46,-126 214.42,-126 214.42,-126 381.08,-126 381.08,-126 385.04,-126 389,-129.96 389,-133.92 389,-133.92 389,-141.83 389,-141.83 389,-145.79 385.04,-149.75 381.08,-149.75"/>
<text text-anchor="middle" x="297.75" y="-132.45" font-family="Arial" font-size="14.00" fill="#c6c5fe">src/stories/Header.stories.ts</text>
</g>
<!-- src/stories/Header.tsx -->
<g id="node10" class="node">
<title>src/stories/Header.tsx</title>
<path fill="none" stroke="#c6c5fe" d="M578.96,-149.75C578.96,-149.75 449.04,-149.75 449.04,-149.75 445.08,-149.75 441.12,-145.79 441.12,-141.83 441.12,-141.83 441.12,-133.92 441.12,-133.92 441.12,-129.96 445.08,-126 449.04,-126 449.04,-126 578.96,-126 578.96,-126 582.92,-126 586.88,-129.96 586.88,-133.92 586.88,-133.92 586.88,-141.83 586.88,-141.83 586.88,-145.79 582.92,-149.75 578.96,-149.75"/>
<text text-anchor="middle" x="514" y="-132.45" font-family="Arial" font-size="14.00" fill="#c6c5fe">src/stories/Header.tsx</text>
</g>
<!-- src/stories/Header.stories.ts&#45;&gt;src/stories/Header.tsx -->
<g id="edge5" class="edge">
<title>src/stories/Header.stories.ts&#45;&gt;src/stories/Header.tsx</title>
<path fill="none" stroke="#757575" d="M389.3,-137.88C402.64,-137.88 416.33,-137.88 429.51,-137.88"/>
<polygon fill="#757575" stroke="#757575" points="429.44,-141.38 439.44,-137.88 429.44,-134.38 429.44,-141.38"/>
</g>
<!-- src/stories/Header.tsx&#45;&gt;src/stories/Button.tsx -->
<g id="edge6" class="edge">
<title>src/stories/Header.tsx&#45;&gt;src/stories/Button.tsx</title>
<path fill="none" stroke="#757575" d="M572.82,-150.25C594.68,-154.93 619.77,-160.3 642.54,-165.17"/>
<polygon fill="#757575" stroke="#757575" points="641.51,-168.53 652.02,-167.2 642.98,-161.68 641.51,-168.53"/>
</g>
<!-- src/stories/header.css -->
<g id="node11" class="node">
<title>src/stories/header.css</title>
<path fill="none" stroke="#cfffac" d="M777.58,-149.75C777.58,-149.75 646.92,-149.75 646.92,-149.75 642.96,-149.75 639,-145.79 639,-141.83 639,-141.83 639,-133.92 639,-133.92 639,-129.96 642.96,-126 646.92,-126 646.92,-126 777.58,-126 777.58,-126 781.54,-126 785.5,-129.96 785.5,-133.92 785.5,-133.92 785.5,-141.83 785.5,-141.83 785.5,-145.79 781.54,-149.75 777.58,-149.75"/>
<text text-anchor="middle" x="712.25" y="-132.45" font-family="Arial" font-size="14.00" fill="#cfffac">src/stories/header.css</text>
</g>
<!-- src/stories/Header.tsx&#45;&gt;src/stories/header.css -->
<g id="edge7" class="edge">
<title>src/stories/Header.tsx&#45;&gt;src/stories/header.css</title>
<path fill="none" stroke="#757575" d="M587.24,-137.88C600.3,-137.88 614.03,-137.88 627.39,-137.88"/>
<polygon fill="#757575" stroke="#757575" points="626.99,-141.38 636.99,-137.88 626.99,-134.38 626.99,-141.38"/>
</g>
<!-- src/stories/Page.stories.ts -->
<g id="node12" class="node">
<title>src/stories/Page.stories.ts</title>
<path fill="none" stroke="#c6c5fe" d="M162.58,-107.75C162.58,-107.75 7.92,-107.75 7.92,-107.75 3.96,-107.75 0,-103.79 0,-99.83 0,-99.83 0,-91.92 0,-91.92 0,-87.96 3.96,-84 7.92,-84 7.92,-84 162.58,-84 162.58,-84 166.54,-84 170.5,-87.96 170.5,-91.92 170.5,-91.92 170.5,-99.83 170.5,-99.83 170.5,-103.79 166.54,-107.75 162.58,-107.75"/>
<text text-anchor="middle" x="85.25" y="-90.45" font-family="Arial" font-size="14.00" fill="#c6c5fe">src/stories/Page.stories.ts</text>
</g>
<!-- src/stories/Page.tsx -->
<g id="node13" class="node">
<title>src/stories/Page.tsx</title>
<path fill="none" stroke="#c6c5fe" d="M356.71,-107.75C356.71,-107.75 238.79,-107.75 238.79,-107.75 234.83,-107.75 230.88,-103.79 230.88,-99.83 230.88,-99.83 230.88,-91.92 230.88,-91.92 230.88,-87.96 234.83,-84 238.79,-84 238.79,-84 356.71,-84 356.71,-84 360.67,-84 364.62,-87.96 364.62,-91.92 364.62,-91.92 364.62,-99.83 364.62,-99.83 364.62,-103.79 360.67,-107.75 356.71,-107.75"/>
<text text-anchor="middle" x="297.75" y="-90.45" font-family="Arial" font-size="14.00" fill="#c6c5fe">src/stories/Page.tsx</text>
</g>
<!-- src/stories/Page.stories.ts&#45;&gt;src/stories/Page.tsx -->
<g id="edge8" class="edge">
<title>src/stories/Page.stories.ts&#45;&gt;src/stories/Page.tsx</title>
<path fill="none" stroke="#757575" d="M170.96,-95.88C186.95,-95.88 203.61,-95.88 219.37,-95.88"/>
<polygon fill="#757575" stroke="#757575" points="219.14,-99.38 229.14,-95.88 219.14,-92.38 219.14,-99.38"/>
</g>
<!-- src/stories/Page.tsx&#45;&gt;src/stories/Header.tsx -->
<g id="edge9" class="edge">
<title>src/stories/Page.tsx&#45;&gt;src/stories/Header.tsx</title>
<path fill="none" stroke="#757575" d="M361.87,-108.25C385.96,-112.97 413.63,-118.4 438.67,-123.3"/>
<polygon fill="#757575" stroke="#757575" points="437.99,-126.74 448.47,-125.23 439.33,-119.87 437.99,-126.74"/>
</g>
<!-- src/stories/page.css -->
<g id="node14" class="node">
<title>src/stories/page.css</title>
<path fill="none" stroke="#cfffac" d="M573.71,-107.75C573.71,-107.75 454.29,-107.75 454.29,-107.75 450.33,-107.75 446.38,-103.79 446.38,-99.83 446.38,-99.83 446.38,-91.92 446.38,-91.92 446.38,-87.96 450.33,-84 454.29,-84 454.29,-84 573.71,-84 573.71,-84 577.67,-84 581.62,-87.96 581.62,-91.92 581.62,-91.92 581.62,-99.83 581.62,-99.83 581.62,-103.79 577.67,-107.75 573.71,-107.75"/>
<text text-anchor="middle" x="514" y="-90.45" font-family="Arial" font-size="14.00" fill="#cfffac">src/stories/page.css</text>
</g>
<!-- src/stories/Page.tsx&#45;&gt;src/stories/page.css -->
<g id="edge10" class="edge">
<title>src/stories/Page.tsx&#45;&gt;src/stories/page.css</title>
<path fill="none" stroke="#757575" d="M365.07,-95.88C387.05,-95.88 411.71,-95.88 434.51,-95.88"/>
<polygon fill="#757575" stroke="#757575" points="434.37,-99.38 444.37,-95.88 434.37,-92.38 434.37,-99.38"/>
</g>
</g>
</svg>
